<?xml version="1.0" encoding="UTF-8" standalone="no"?>
<!-- Created with Inkscape (http://www.inkscape.org/) -->

<svg
  viewBox="0 0 67.733332 67.733335"
  version="1.1"
  id="svg5"
  xmlns="http://www.w3.org/2000/svg"
>
  <g>
    <path
      style="fill:currentColor;stroke-width:1"
      d="m 31.390687,67.445281 c -1.351929,-0.61401 -3.376468,-2.51474 -3.672708,-3.44811 -0.138579,-0.43663 -0.47975,-0.5759 -1.410732,-0.5759 -1.40742,0 -2.340936,-0.40385 -3.100202,-1.34117 -0.443096,-0.54702 -0.532039,-1.33895 -0.539227,-4.8011 -0.01553,-7.48151 -0.487174,-8.73735 -4.540864,-12.09105 -3.851856,-3.18672 -6.528703,-7.04306 -8.2557004,-11.89342 C 8.7754121,30.216821 8.4790061,23.126881 9.3030921,19.704241 10.68932,13.946871 13.843656,9.0829919 18.467486,5.5730621 c 5.400118,-4.09922 11.272319,-5.80400998 17.734307,-5.14859998 10.63039,1.07822998 18.94377,8.02763978 21.92981,18.33180888 0.64919,2.24025 0.77058,3.29667 0.77058,6.70629 0,4.26226 -0.33515,6.16363 -1.66817,9.46386 -1.57072,3.88872 -4.21143,7.37354 -8.07356,10.65433 -1.21961,1.03601 -2.59983,2.53613 -3.06718,3.33359 -0.8276,1.41219 -0.85222,1.5898 -0.94626,6.82674 -0.0532,2.95727 -0.23849,5.66439 -0.41194,6.01584 -0.46698,0.94621 -1.88628,1.66435 -3.28933,1.66435 -1.12403,0 -1.30163,0.11294 -1.92625,1.22423 -1.10846,1.97224 -3.613252,3.39281 -5.952162,3.37573 -0.507853,-0.003 -1.487342,-0.26289 -2.176644,-0.57595 z m 9.662376,-16.68176 c 0.51397,-2.9178 1.69865,-5.047 3.97887,-7.15108 1.09831,-1.01348 2.79144,-2.63526 3.76251,-3.60397 6.63269,-6.61655 7.87427,-17.07675 3.00641,-25.32859 -1.39311,-2.36156 -4.89472,-5.8155391 -7.33772,-7.2379389 -4.38592,-2.55363 -10.056802,-3.53794 -14.608314,-2.53562 -6.624772,1.45889 -12.008234,5.6740289 -14.835935,11.6162289 -1.581867,3.32417 -1.972889,5.18353 -1.948393,9.26478 0.03984,6.63823 2.568316,11.7307 8.131542,16.37735 3.519137,2.93933 4.942529,5.31717 5.600528,9.35594 l 0.187631,1.15167 h 6.863326 6.863325 z m -12.306669,-13.80979 -1.440661,-0.62027 0.177064,-1.49503 c 0.209508,-1.76898 -0.296738,-2.75548 -1.715644,-3.34321 -0.71295,-0.29531 -1.170654,-0.30565 -1.922851,-0.0434 -1.126926,0.39286 -1.183483,0.34247 -2.008242,-1.78896 -0.504277,-1.3032 -0.502386,-1.3713 0.04689,-1.68911 2.396944,-1.38691 2.664455,-3.9159 0.554597,-5.24305 -1.159444,-0.72932 -1.185848,-0.90703 -0.405302,-2.72797 l 0.597938,-1.39494 1.534732,0.18177 c 1.42647,0.16895 1.603596,0.11294 2.51092,-0.79442 0.898241,-0.89825 0.964254,-1.10037 0.826748,-2.5314 l -0.149436,-1.55523 1.263394,-0.57373 c 1.639611,-0.74458 2.250696,-0.7328 2.498573,0.0482 0.227677,0.71734 1.858545,1.8186 2.695771,1.82034 0.902298,0.002 2.202739,-0.81116 2.657978,-1.66178 0.50275,-0.93939 0.96671,-0.97546 2.65943,-0.20675 l 1.26339,0.57373 -0.14944,1.55522 c -0.1375,1.43104 -0.0715,1.63316 0.82675,2.5314 0.90511,0.90512 1.08689,0.96308 2.49646,0.79613 1.51688,-0.17964 1.52133,-0.17754 1.98804,0.93945 0.78693,1.88338 0.87893,2.53737 0.35695,2.53737 -0.81518,0 -2.05682,1.78974 -2.05682,2.96476 0,1.07394 1.09718,2.57071 2.13898,2.91799 0.37987,0.12661 0.36793,0.34448 -0.0826,1.50897 -0.82605,2.13482 -0.88226,2.18494 -2.00942,1.79202 -0.75219,-0.26221 -1.2099,-0.25187 -1.92285,0.0434 -1.41964,0.58804 -1.92517,1.57405 -1.71535,3.34569 l 0.17735,1.49751 -1.72844,0.70152 c -1.4284,0.57974 -1.75389,0.62517 -1.87505,0.26171 -0.0806,-0.24189 -0.52798,-0.82118 -0.994117,-1.28731 -1.235636,-1.23564 -3.005943,-1.19351 -4.092159,0.0974 -0.437296,0.51969 -0.795083,1.0725 -0.795083,1.22846 0,0.41449 -0.586584,0.31184 -2.208444,-0.38644 z m 7.493149,-8.66639 c 2.23654,-1.46544 2.12328,-4.9746 -0.209907,-6.50336 -0.413491,-0.27092 -1.275326,-0.56115 -1.915182,-0.64493 -1.489419,-0.19503 -3.079534,0.81387 -3.890247,2.46827 -0.489661,0.99924 -0.524037,1.35463 -0.226947,2.34623 0.481846,1.60827 1.20656,2.40736 2.623067,2.89229 1.291975,0.44229 2.338226,0.28084 3.619216,-0.5585 z"
    />
  </g>
</svg>
